<svg width="40" height="40" viewBox="0 0 40 40" fill="none" xmlns="http://www.w3.org/2000/svg">
<path d="M3.3335 9.99165C3.3335 9.07498 4.07683 8.33331 4.99183 8.33331H18.3418C18.7816 8.33331 19.2035 8.50803 19.5144 8.81903C19.8254 9.13003 20.0002 9.55183 20.0002 9.99165C20.0002 10.4315 19.8254 10.8533 19.5144 11.1643C19.2035 11.4753 18.7816 11.65 18.3418 11.65H4.99183C4.55201 11.65 4.13021 11.4753 3.81921 11.1643C3.50821 10.8533 3.3335 10.4315 3.3335 9.99165ZM3.3335 20C3.3335 19.0833 4.07683 18.3416 4.99183 18.3416H35.0085C35.4483 18.3416 35.8701 18.5164 36.1811 18.8274C36.4921 19.1384 36.6668 19.5602 36.6668 20C36.6668 20.4398 36.4921 20.8616 36.1811 21.1726C35.8701 21.4836 35.4483 21.6583 35.0085 21.6583H4.99183C4.55201 21.6583 4.13021 21.4836 3.81921 21.1726C3.50821 20.8616 3.3335 20.4398 3.3335 20ZM4.99183 28.35C4.55201 28.35 4.13021 28.5247 3.81921 28.8357C3.50821 29.1467 3.3335 29.5685 3.3335 30.0083C3.3335 30.4481 3.50821 30.8699 3.81921 31.1809C4.13021 31.4919 4.55201 31.6666 4.99183 31.6666H25.0085C25.4483 31.6666 25.8701 31.4919 26.1811 31.1809C26.4921 30.8699 26.6668 30.4481 26.6668 30.0083C26.6668 29.5685 26.4921 29.1467 26.1811 28.8357C25.8701 28.5247 25.4483 28.35 25.0085 28.35H4.99183Z" fill="#B59571"/>
</svg>
