<svg width="416" height="240" viewBox="0 0 416 240" fill="none" xmlns="http://www.w3.org/2000/svg">
<path d="M0.5 0.5H0.951087H1.90055H2.84839H3.79461H4.73923H5.68224H6.62366H7.56349H8.50174H9.43841H10.3735H11.3071H12.239H13.1695H14.0984H15.0257H15.9515H16.8758H17.7986H18.7198H19.6396H20.5579H21.4746H22.3899H23.3037H24.216H25.1269H26.0362H26.9442H27.8507H28.7557H29.6593H30.5615H31.4623H32.3616H33.2595H34.1561H35.0512H35.9449H36.8373H37.7283H38.6179H39.5061H40.393H41.2785H42.1627H43.0455H43.927H44.8072H45.6861H46.5636H47.4398H48.3148H49.1884H50.0608H50.9318H51.8016H52.6701H53.5374H54.4034H55.2681H56.1316H56.9939H57.8549H58.7147H59.5733H60.4307H61.2869H62.1418H62.9956H63.8482H64.6996H65.5499H66.3989H67.2468H68.0936H68.9392H69.7837H70.627H71.4692H72.3102H73.1502H73.989H74.8268H75.6634H76.499H77.3335H78.1668H78.9992H79.8304H80.6606H81.4897H82.3178H83.1449H83.9709H84.7959H85.6199H86.4428H87.2648H88.0857H88.9057H89.7246H90.5426H91.3596H92.1756H92.9907H93.8048H94.618H95.4302H96.2415H97.0518H97.8612H98.6697H99.4773H100.284H101.09H101.895H102.699H103.502H104.304H105.105H105.906H106.706H107.504H108.302H109.1H109.896H110.691H111.486H112.28H113.073H113.865H114.657H115.447H116.237H117.026H117.815H118.602H119.389H120.175H120.961H121.745H122.529H123.312H124.095H124.877H125.658H126.438H127.218H127.997H128.775H129.553H130.33H131.106H131.882H132.657H133.431H134.205H134.978H135.75H136.522H137.294H138.064H138.834H139.604H140.373H141.141H141.909H142.676H143.443H144.209H144.975H145.74H146.504H147.268H148.032H148.795H149.557H150.319H151.08H151.841H152.602H153.362H154.122H154.881H155.639H156.398H157.155H157.913H158.67H159.426H160.182H160.938H161.693H162.448H163.202H163.956H164.71H165.464H166.217H166.969H167.721H168.473H169.225H169.976H170.727H171.478H172.228H172.978H173.728H174.477H175.226H175.975H176.724H177.472H178.22H178.968H179.715H180.463H181.21H181.956H182.703H183.449H184.196H184.942H185.687H186.433H187.178H187.924H188.669H189.413H190.158H190.903H191.647H192.391H193.136H193.88H194.623H195.367H196.111H196.854H197.598H198.341H199.085H199.828H200.571H201.314H202.057H202.8H203.543H204.286H205.029H205.772H206.514H207.257H208H208.743H209.486H210.228H210.971H211.714H212.457H213.2H213.943H214.686H215.429H216.172H216.915H217.659H218.402H219.146H219.889H220.633H221.377H222.12H222.864H223.609H224.353H225.097H225.842H226.587H227.331H228.076H228.822H229.567H230.313H231.058H231.804H232.551H233.297H234.044H234.79H235.537H236.285H237.032H237.78H238.528H239.276H240.025H240.774H241.523H242.272H243.022H243.772H244.522H245.273H246.024H246.775H247.527H248.279H249.031H249.783H250.536H251.29H252.044H252.798H253.552H254.307H255.062H255.818H256.574H257.33H258.087H258.845H259.602H260.361H261.119H261.878H262.638H263.398H264.159H264.92H265.681H266.443H267.205H267.968H268.732H269.496H270.26H271.025H271.791H272.557H273.324H274.091H274.859H275.627H276.396H277.166H277.936H278.706H279.478H280.25H281.022H281.795H282.569H283.343H284.118H284.894H285.67H286.447H287.225H288.003H288.782H289.562H290.342H291.123H291.905H292.688H293.471H294.255H295.039H295.825H296.611H297.398H298.185H298.974H299.763H300.553H301.343H302.135H302.927H303.72H304.514H305.309H306.104H306.9H307.698H308.496H309.294H310.094H310.895H311.696H312.498H313.301H314.105H314.91H315.716H316.523H317.33H318.139H318.948H319.759H320.57H321.382H322.195H323.009H323.824H324.64H325.457H326.275H327.094H327.914H328.735H329.557H330.38H331.204H332.029H332.855H333.682H334.51H335.339H336.17H337.001H337.833H338.667H339.501H340.337H341.173H342.011H342.85H343.69H344.531H345.373H346.216H347.061H347.906H348.753H349.601H350.45H351.3H352.152H353.004H353.858H354.713H355.569H356.427H357.285H358.145H359.006H359.868H360.732H361.597H362.463H363.33H364.198H365.068H365.939H366.812H367.685H368.56H369.436H370.314H371.193H372.073H372.954H373.837H374.721H375.607H376.494H377.382H378.272H379.163H380.055H380.949H381.844H382.74H383.638H384.538H385.438H386.341H387.244H388.149H389.056H389.964H390.873H391.784H392.696H393.61H394.525H395.442H396.36H397.28H398.201H399.124H400.048H400.974H401.902H402.831H403.761H404.693H405.626H406.562H407.498H408.436H409.376H410.318H411.261H412.205H413.152H414.099H415.049H415.5V239.5H0.5V0.5Z" stroke="#333333" stroke-opacity="0.2"/>
</svg>
